<svg width="110" height="169" viewBox="0 0 110 169" fill="none" xmlns="http://www.w3.org/2000/svg">
<path d="M7.296 122V58H23.168L23.936 66.32C25.8987 63.0773 28.416 60.6453 31.488 59.024C34.56 57.3173 37.9733 56.464 41.728 56.464C46.9333 56.464 51.2853 57.5733 54.784 59.792C58.368 62.0107 60.9707 65.424 62.592 70.032C64.4693 65.68 67.1147 62.352 70.528 60.048C73.9413 57.6587 77.9093 56.464 82.432 56.464C89.9413 56.464 95.6587 58.8533 99.584 63.632C103.509 68.3253 105.472 75.5787 105.472 85.392V122H88.576V89.232C88.576 84.88 88.1067 81.5093 87.168 79.12C86.2293 76.7307 84.9493 75.024 83.328 74C81.7067 72.8907 79.7867 72.336 77.568 72.336C73.472 72.2507 70.3147 73.5733 68.096 76.304C65.8773 79.0347 64.768 83.088 64.768 88.464V122H47.872V89.232C47.872 84.88 47.4027 81.5093 46.464 79.12C45.6107 76.7307 44.3307 75.024 42.624 74C41.0027 72.8907 39.0827 72.336 36.864 72.336C32.768 72.2507 29.6107 73.5733 27.392 76.304C25.2587 79.0347 24.192 83.088 24.192 88.464V122H7.296Z" fill="#2AD08A"/>
<path d="M16 131.983C16 144.763 28.5 160 56 160C83.5 160 97 144.271 97 131" stroke="#2AD08A" stroke-width="17"/>
</svg>
