<svg width="271" height="169" viewBox="0 0 271 169" fill="none" xmlns="http://www.w3.org/2000/svg">
<path d="M7.296 122V58H23.168L23.936 66.32C25.8987 63.0773 28.416 60.6453 31.488 59.024C34.56 57.3173 37.9733 56.464 41.728 56.464C46.9333 56.464 51.2853 57.5733 54.784 59.792C58.368 62.0107 60.9707 65.424 62.592 70.032C64.4693 65.68 67.1147 62.352 70.528 60.048C73.9413 57.6587 77.9093 56.464 82.432 56.464C89.9413 56.464 95.6587 58.8533 99.584 63.632C103.509 68.3253 105.472 75.5787 105.472 85.392V122H88.576V89.232C88.576 84.88 88.1067 81.5093 87.168 79.12C86.2293 76.7307 84.9493 75.024 83.328 74C81.7067 72.8907 79.7867 72.336 77.568 72.336C73.472 72.2507 70.3147 73.5733 68.096 76.304C65.8773 79.0347 64.768 83.088 64.768 88.464V122H47.872V89.232C47.872 84.88 47.4027 81.5093 46.464 79.12C45.6107 76.7307 44.3307 75.024 42.624 74C41.0027 72.8907 39.0827 72.336 36.864 72.336C32.768 72.2507 29.6107 73.5733 27.392 76.304C25.2587 79.0347 24.192 83.088 24.192 88.464V122H7.296ZM119.945 122V58H136.841V122H119.945ZM128.393 47.632C125.833 47.632 123.572 46.6933 121.609 44.816C119.646 42.8533 118.665 40.5493 118.665 37.904C118.665 35.2587 119.646 32.9973 121.609 31.12C123.572 29.1573 125.833 28.176 128.393 28.176C131.038 28.176 133.3 29.1573 135.177 31.12C137.14 32.9973 138.121 35.2587 138.121 37.904C138.121 40.5493 137.14 42.8533 135.177 44.816C133.3 46.6933 131.038 47.632 128.393 47.632ZM152.421 122V58H168.293L169.317 69.776V122H152.421ZM194.789 122V89.232H211.685V122H194.789ZM194.789 89.232C194.789 84.88 194.277 81.5093 193.253 79.12C192.314 76.7307 190.949 75.024 189.157 74C187.365 72.8907 185.274 72.336 182.885 72.336C178.533 72.2507 175.162 73.5733 172.773 76.304C170.469 79.0347 169.317 83.088 169.317 88.464H163.685C163.685 81.6373 164.666 75.8773 166.629 71.184C168.677 66.4053 171.493 62.7787 175.077 60.304C178.746 57.744 183.013 56.464 187.877 56.464C192.912 56.464 197.221 57.488 200.805 59.536C204.389 61.584 207.12 64.784 208.997 69.136C210.874 73.4027 211.77 78.9493 211.685 85.776V89.232H194.789ZM251.539 123.536C244.456 123.536 239.08 121.787 235.411 118.288C231.827 114.789 230.035 109.797 230.035 103.312V38.032H246.931V99.6C246.931 102.331 247.528 104.421 248.723 105.872C249.918 107.237 251.667 107.92 253.971 107.92C254.824 107.92 255.763 107.749 256.787 107.408C257.811 106.981 258.878 106.384 259.987 105.616L265.875 118.288C263.827 119.824 261.523 121.061 258.963 122C256.488 123.024 254.014 123.536 251.539 123.536ZM219.667 72.336V58H262.931V72.336H219.667Z" fill="#2AD08A"/>
<path d="M16 131.983C16 144.763 28.5 160 56 160C83.5 160 97 144.271 97 131" stroke="#2AD08A" stroke-width="17"/>
</svg>
