<svg width="856" height="169" viewBox="0 0 856 169" fill="none" xmlns="http://www.w3.org/2000/svg">
<path d="M7.296 122V58H23.168L23.936 66.32C25.8987 63.0773 28.416 60.6453 31.488 59.024C34.56 57.3173 37.9733 56.464 41.728 56.464C46.9333 56.464 51.2853 57.5733 54.784 59.792C58.368 62.0107 60.9707 65.424 62.592 70.032C64.4693 65.68 67.1147 62.352 70.528 60.048C73.9413 57.6587 77.9093 56.464 82.432 56.464C89.9413 56.464 95.6587 58.8533 99.584 63.632C103.509 68.3253 105.472 75.5787 105.472 85.392V122H88.576V89.232C88.576 84.88 88.1067 81.5093 87.168 79.12C86.2293 76.7307 84.9493 75.024 83.328 74C81.7067 72.8907 79.7867 72.336 77.568 72.336C73.472 72.2507 70.3147 73.5733 68.096 76.304C65.8773 79.0347 64.768 83.088 64.768 88.464V122H47.872V89.232C47.872 84.88 47.4027 81.5093 46.464 79.12C45.6107 76.7307 44.3307 75.024 42.624 74C41.0027 72.8907 39.0827 72.336 36.864 72.336C32.768 72.2507 29.6107 73.5733 27.392 76.304C25.2587 79.0347 24.192 83.088 24.192 88.464V122H7.296ZM119.945 122V58H136.841V122H119.945ZM128.393 47.632C125.833 47.632 123.572 46.6933 121.609 44.816C119.646 42.8533 118.665 40.5493 118.665 37.904C118.665 35.2587 119.646 32.9973 121.609 31.12C123.572 29.1573 125.833 28.176 128.393 28.176C131.038 28.176 133.3 29.1573 135.177 31.12C137.14 32.9973 138.121 35.2587 138.121 37.904C138.121 40.5493 137.14 42.8533 135.177 44.816C133.3 46.6933 131.038 47.632 128.393 47.632ZM152.421 122V58H168.293L169.317 69.776V122H152.421ZM194.789 122V89.232H211.685V122H194.789ZM194.789 89.232C194.789 84.88 194.277 81.5093 193.253 79.12C192.314 76.7307 190.949 75.024 189.157 74C187.365 72.8907 185.274 72.336 182.885 72.336C178.533 72.2507 175.162 73.5733 172.773 76.304C170.469 79.0347 169.317 83.088 169.317 88.464H163.685C163.685 81.6373 164.666 75.8773 166.629 71.184C168.677 66.4053 171.493 62.7787 175.077 60.304C178.746 57.744 183.013 56.464 187.877 56.464C192.912 56.464 197.221 57.488 200.805 59.536C204.389 61.584 207.12 64.784 208.997 69.136C210.874 73.4027 211.77 78.9493 211.685 85.776V89.232H194.789ZM251.539 123.536C244.456 123.536 239.08 121.787 235.411 118.288C231.827 114.789 230.035 109.797 230.035 103.312V38.032H246.931V99.6C246.931 102.331 247.528 104.421 248.723 105.872C249.918 107.237 251.667 107.92 253.971 107.92C254.824 107.92 255.763 107.749 256.787 107.408C257.811 106.981 258.878 106.384 259.987 105.616L265.875 118.288C263.827 119.824 261.523 121.061 258.963 122C256.488 123.024 254.014 123.536 251.539 123.536ZM219.667 72.336V58H262.931V72.336H219.667ZM338.019 123.536C331.363 123.536 325.432 122.128 320.227 119.312C315.022 116.411 310.968 112.443 308.067 107.408C305.166 102.288 303.715 96.4853 303.715 90C303.715 83.4293 305.166 77.6267 308.067 72.592C310.968 67.5573 314.979 63.632 320.099 60.816C325.219 57.9147 331.107 56.464 337.763 56.464C344.163 56.464 350.008 58.0427 355.299 61.2C360.59 64.3573 364.43 68.9227 366.819 74.896L350.947 80.528C349.752 78.0533 347.875 76.0907 345.315 74.64C342.84 73.104 340.067 72.336 336.995 72.336C333.838 72.336 331.064 73.104 328.675 74.64C326.286 76.0907 324.408 78.1387 323.043 80.784C321.678 83.4293 320.995 86.5013 320.995 90C320.995 93.4987 321.678 96.5707 323.043 99.216C324.408 101.776 326.328 103.824 328.803 105.36C331.278 106.896 334.094 107.664 337.251 107.664C340.323 107.664 343.096 106.853 345.571 105.232C348.131 103.611 350.008 101.477 351.203 98.832L367.203 104.464C364.728 110.523 360.846 115.216 355.555 118.544C350.35 121.872 344.504 123.536 338.019 123.536ZM415.702 122L415.19 109.072V89.616C415.19 85.776 414.763 82.4907 413.91 79.76C413.142 77.0293 411.862 74.9387 410.07 73.488C408.363 71.952 406.017 71.184 403.03 71.184C400.299 71.184 397.825 71.7813 395.606 72.976C393.387 74.1707 391.51 76.0053 389.974 78.48L375.126 73.36C376.321 70.6293 378.07 67.984 380.374 65.424C382.678 62.7787 385.665 60.6453 389.334 59.024C393.089 57.3173 397.654 56.464 403.03 56.464C409.515 56.464 414.891 57.7013 419.158 60.176C423.51 62.6507 426.71 66.1493 428.758 70.672C430.891 75.1093 431.915 80.4 431.83 86.544L431.446 122H415.702ZM397.782 123.536C390.102 123.536 384.129 121.829 379.862 118.416C375.681 115.003 373.59 110.181 373.59 103.952C373.59 97.1253 375.851 92.0053 380.374 88.592C384.982 85.0933 391.425 83.344 399.702 83.344H415.958V95.888H405.59C400.043 95.888 396.203 96.5707 394.07 97.936C391.937 99.216 390.87 101.051 390.87 103.44C390.87 105.317 391.723 106.811 393.43 107.92C395.137 108.944 397.526 109.456 400.598 109.456C403.414 109.456 405.889 108.816 408.022 107.536C410.241 106.171 411.99 104.464 413.27 102.416C414.55 100.283 415.19 98.1067 415.19 95.888H419.286C419.286 104.592 417.622 111.376 414.294 116.24C411.051 121.104 405.547 123.536 397.782 123.536ZM469.232 123.536C465.136 123.536 461.296 122.939 457.712 121.744C454.128 120.464 450.971 118.672 448.24 116.368C445.509 113.979 443.376 111.077 441.84 107.664L456.304 101.008C457.584 103.056 459.333 104.848 461.552 106.384C463.771 107.835 466.331 108.56 469.232 108.56C472.048 108.56 474.224 108.176 475.76 107.408C477.296 106.555 478.064 105.36 478.064 103.824C478.064 102.288 477.424 101.179 476.144 100.496C474.949 99.728 473.285 99.088 471.152 98.576L465.264 97.04C459.12 95.4187 454.256 92.8587 450.672 89.36C447.173 85.776 445.424 81.68 445.424 77.072C445.424 70.5013 447.515 65.424 451.696 61.84C455.963 58.256 461.979 56.464 469.744 56.464C473.755 56.464 477.467 57.0613 480.88 58.256C484.379 59.4507 487.365 61.1147 489.84 63.248C492.315 65.3813 494.021 67.856 494.96 70.672L481.008 77.072C480.411 75.3653 478.96 74 476.656 72.976C474.352 71.8667 472.048 71.312 469.744 71.312C467.44 71.312 465.648 71.824 464.368 72.848C463.173 73.7867 462.576 75.1093 462.576 76.816C462.576 77.9253 463.173 78.864 464.368 79.632C465.563 80.3147 467.269 80.912 469.488 81.424L477.808 83.472C481.989 84.496 485.317 86.16 487.792 88.464C490.352 90.6827 492.187 93.2 493.296 96.016C494.491 98.7467 495.088 101.435 495.088 104.08C495.088 107.92 493.936 111.333 491.632 114.32C489.413 117.221 486.341 119.483 482.416 121.104C478.576 122.725 474.181 123.536 469.232 123.536ZM505.049 122V32.4H521.945V122H505.049ZM547.545 122V89.232H564.441V122H547.545ZM547.545 89.232C547.545 84.88 547.033 81.5093 546.009 79.12C544.985 76.7307 543.577 75.024 541.785 74C539.993 72.8907 537.902 72.336 535.513 72.336C531.161 72.2507 527.79 73.5733 525.401 76.304C523.097 79.0347 521.945 83.088 521.945 88.464H516.313C516.313 81.6373 517.294 75.8773 519.257 71.184C521.305 66.4053 524.121 62.7787 527.705 60.304C531.374 57.744 535.641 56.464 540.505 56.464C545.625 56.464 549.934 57.488 553.433 59.536C557.017 61.584 559.748 64.784 561.625 69.136C563.502 73.4027 564.441 78.9493 564.441 85.776V89.232H547.545ZM577.921 122V32.4H594.817V110.096L593.921 122H577.921ZM614.145 123.536C608.769 123.536 604.204 122.171 600.449 119.44C596.78 116.709 593.964 112.827 592.001 107.792C590.038 102.757 589.057 96.8267 589.057 90C589.057 83.088 590.038 77.1573 592.001 72.208C593.964 67.1733 596.78 63.2907 600.449 60.56C604.204 57.8293 608.769 56.464 614.145 56.464C620.033 56.464 625.11 57.8293 629.377 60.56C633.729 63.2907 637.1 67.1733 639.489 72.208C641.878 77.1573 643.073 83.088 643.073 90C643.073 96.8267 641.878 102.757 639.489 107.792C637.1 112.827 633.729 116.709 629.377 119.44C625.11 122.171 620.033 123.536 614.145 123.536ZM609.793 108.048C612.865 108.048 615.553 107.28 617.857 105.744C620.246 104.208 622.124 102.075 623.489 99.344C624.854 96.6133 625.537 93.4987 625.537 90C625.537 86.5013 624.854 83.3867 623.489 80.656C622.209 77.9253 620.374 75.8347 617.985 74.384C615.681 72.848 612.993 72.08 609.921 72.08C607.02 72.08 604.417 72.848 602.113 74.384C599.809 75.92 598.017 78.0533 596.737 80.784C595.457 83.4293 594.817 86.5013 594.817 90C594.817 93.4987 595.457 96.6133 596.737 99.344C598.017 102.075 599.766 104.208 601.985 105.744C604.289 107.28 606.892 108.048 609.793 108.048ZM692.827 122L692.315 109.072V89.616C692.315 85.776 691.888 82.4907 691.035 79.76C690.267 77.0293 688.987 74.9387 687.195 73.488C685.488 71.952 683.142 71.184 680.155 71.184C677.424 71.184 674.95 71.7813 672.731 72.976C670.512 74.1707 668.635 76.0053 667.099 78.48L652.251 73.36C653.446 70.6293 655.195 67.984 657.499 65.424C659.803 62.7787 662.79 60.6453 666.459 59.024C670.214 57.3173 674.779 56.464 680.155 56.464C686.64 56.464 692.016 57.7013 696.283 60.176C700.635 62.6507 703.835 66.1493 705.883 70.672C708.016 75.1093 709.04 80.4 708.955 86.544L708.571 122H692.827ZM674.907 123.536C667.227 123.536 661.254 121.829 656.987 118.416C652.806 115.003 650.715 110.181 650.715 103.952C650.715 97.1253 652.976 92.0053 657.499 88.592C662.107 85.0933 668.55 83.344 676.827 83.344H693.083V95.888H682.715C677.168 95.888 673.328 96.5707 671.195 97.936C669.062 99.216 667.995 101.051 667.995 103.44C667.995 105.317 668.848 106.811 670.555 107.92C672.262 108.944 674.651 109.456 677.723 109.456C680.539 109.456 683.014 108.816 685.147 107.536C687.366 106.171 689.115 104.464 690.395 102.416C691.675 100.283 692.315 98.1067 692.315 95.888H696.411C696.411 104.592 694.747 111.376 691.419 116.24C688.176 121.104 682.672 123.536 674.907 123.536ZM753.269 123.536C746.613 123.536 740.682 122.128 735.477 119.312C730.272 116.411 726.218 112.443 723.317 107.408C720.416 102.288 718.965 96.4853 718.965 90C718.965 83.4293 720.416 77.6267 723.317 72.592C726.218 67.5573 730.229 63.632 735.349 60.816C740.469 57.9147 746.357 56.464 753.013 56.464C759.413 56.464 765.258 58.0427 770.549 61.2C775.84 64.3573 779.68 68.9227 782.069 74.896L766.197 80.528C765.002 78.0533 763.125 76.0907 760.565 74.64C758.09 73.104 755.317 72.336 752.245 72.336C749.088 72.336 746.314 73.104 743.925 74.64C741.536 76.0907 739.658 78.1387 738.293 80.784C736.928 83.4293 736.245 86.5013 736.245 90C736.245 93.4987 736.928 96.5707 738.293 99.216C739.658 101.776 741.578 103.824 744.053 105.36C746.528 106.896 749.344 107.664 752.501 107.664C755.573 107.664 758.346 106.853 760.821 105.232C763.381 103.611 765.258 101.477 766.453 98.832L782.453 104.464C779.978 110.523 776.096 115.216 770.805 118.544C765.6 121.872 759.754 123.536 753.269 123.536ZM808.424 105.744L798.312 94.096L831.08 58H851.176L808.424 105.744ZM792.296 122V32.4H809.192V122H792.296ZM833.256 122L812.008 91.024L823.016 79.376L853.096 122H833.256Z" fill="#2AD08A"/>
<path d="M16 131.983C16 144.763 28.5 160 56 160C83.5 160 97 144.271 97 131" stroke="#2AD08A" stroke-width="17"/>
</svg>
